<?xml version="1.0" encoding="UTF-8"?>
<svg id="Layer_1" data-name="Layer 1" xmlns="http://www.w3.org/2000/svg" viewBox="0 0 222.56 40.18">
  <defs>
    <style>
      .cls-1 {
        fill: #3fa9f5;
      }

      .cls-1, .cls-2, .cls-3, .cls-4, .cls-5 {
        stroke-width: 0px;
      }

      .cls-2 {
        fill: #44647f;
      }

      .cls-3 {
        fill: #122c3d;
      }

      .cls-4 {
        fill: #cee9f4;
      }

      .cls-5 {
        fill: #fff;
      }
    </style>
  </defs>
  <path class="cls-5" d="m44.29,16.19h4.85v13.5h4.17v-13.5h4.85v-3.72h-13.88v3.72Z"/>
  <path class="cls-5" d="m63.33,12.47h-4.17v17.21h4.17V12.47Z"/>
  <path class="cls-5" d="m74.09,22.33l-4.17-9.86h-4.63l-.61,17.21h4.55v-10.62l3.34,8.11h3.03l3.41-8.11v10.62h4.55l-.61-17.21h-4.63l-4.25,9.86Z"/>
  <path class="cls-5" d="m100.41,16.19h4.85v13.5h4.17v-13.5h4.85v-3.72h-13.88v3.72Z"/>
  <path class="cls-5" d="m126.11,18.99h-6.82v-6.52h-4.02v17.21h4.02v-6.98h6.82v6.98h3.94V12.47h-3.94v6.52Z"/>
  <path class="cls-5" d="m142.94,12.47l-3.94,6.29-3.94-6.29h-4.78l6.6,10.16v7.05h4.17v-7.05l6.6-10.16h-4.7Z"/>
  <path class="cls-4" d="m157.43,18.76c-1.59-.38-3.03-.68-3.03-1.52s.76-1.36,2.05-1.36c1.74,0,3.41.61,4.62,1.74l.23.23,2.35-3.11-.23-.15c-1.74-1.59-3.94-2.43-6.67-2.43-3.79,0-6.6,2.27-6.6,5.38,0,3.94,3.71,4.85,6.37,5.46,1.74.38,3.18.76,3.18,1.67s-.99,1.52-2.58,1.52c-2.58,0-4.25-1.36-5.08-2.2l-.23-.3-2.28,3.26.15.15c1.82,1.82,4.25,2.73,7.28,2.73,4.32,0,6.98-2.12,6.98-5.61,0-3.94-3.79-4.78-6.52-5.46Z"/>
  <path class="cls-4" d="m171.53,18.76l-3.94-6.29h-4.78l6.6,10.16v7.05h4.17v-7.05l6.6-10.16h-4.7l-3.94,6.29Z"/>
  <path class="cls-4" d="m194.96,12.47h-5.16l-5.38,6.75v-6.75h-4.17v17.21h4.17v-5.31l.91-1.21,4.93,6.52h5.16l-7.28-9.18,6.82-8.04Z"/>
  <path class="cls-4" d="m195.42,29.68h12.36v-3.79h-8.19v-3.11h8.04v-3.72h-8.04v-2.88h8.19v-3.72h-12.36v17.21Z"/>
  <path class="cls-4" d="m216.04,18.76c-1.59-.38-3.03-.68-3.03-1.52s.76-1.36,2.05-1.36c1.74,0,3.41.61,4.63,1.74l.23.23,2.35-3.11-.23-.15c-1.74-1.59-3.94-2.43-6.67-2.43-3.79,0-6.6,2.27-6.6,5.38,0,3.94,3.72,4.85,6.37,5.46,1.74.38,3.18.76,3.18,1.67s-.99,1.52-2.58,1.52c-2.58,0-4.25-1.36-5.08-2.2l-.23-.3-2.27,3.26.15.15c1.82,1.82,4.25,2.73,7.28,2.73,4.32,0,6.98-2.12,6.98-5.61-.08-3.94-3.79-4.78-6.52-5.46Z"/>
  <path class="cls-5" d="m99.88,17.55c-.38-1.14-.91-2.12-1.52-2.96-.68-.83-1.52-1.52-2.5-1.97-.99-.45-2.12-.76-3.34-.76s-2.35.23-3.34.76c-.99.45-1.82,1.14-2.5,1.97-.68.83-1.21,1.82-1.52,2.96-.38,1.14-.53,2.35-.53,3.64s.15,2.5.53,3.56c.38,1.14.91,2.12,1.52,2.88.68.83,1.52,1.52,2.5,1.97.99.45,2.12.68,3.34.68s2.35-.23,3.34-.68c.99-.45,1.82-1.14,2.5-1.97.68-.83,1.21-1.82,1.52-2.88.38-1.14.53-2.27.53-3.56.08-1.29-.15-2.5-.53-3.64Zm-5.54,8.72c-.45.3-1.06.45-1.82.45s-1.36-.15-1.82-.45c-.53-.3-.91-.76-1.21-1.21-.3-.53-.53-1.14-.68-1.74-.15-.68-.23-1.36-.23-2.05,0-.76.08-1.44.23-2.12.15-.68.38-1.29.68-1.82.3-.53.76-.91,1.21-1.21.45-.45,1.06-.61,1.82-.61s1.36.15,1.82.45c.53.3.91.76,1.21,1.21.3.53.53,1.14.68,1.82.15.68.23,1.44.23,2.12s-.08,1.36-.23,2.05c-.15.68-.38,1.29-.68,1.74-.23.61-.68,1.06-1.21,1.36Z"/>
  <g>
    <circle class="cls-1" cx="20.09" cy="20.09" r="20.09"/>
    <circle class="cls-5" cx="20.09" cy="20.09" r="16.07"/>
    <path class="cls-2" d="m19.46,3.51c-1.12.05-2.09.18-3.12.42-3.04.71-5.75,2.21-7.97,4.44-2.77,2.78-4.44,6.33-4.8,10.24l-.05.56v1.93l.07.72c.45,4.46,2.74,8.61,6.32,11.38,2.34,1.82,5.06,2.97,8.01,3.37l.67.09,1.12.03,1.13.03.6-.05c.33-.03.88-.09,1.22-.14l.61-.09.8-.2c2.46-.61,4.47-1.61,6.53-3.25l.43-.34.81-.81.81-.81.34-.43c1.1-1.39,1.78-2.52,2.51-4.22.24-.55.53-1.45.74-2.31l.2-.8.09-.61c.04-.34.11-.88.14-1.22l.05-.6-.03-1.13-.03-1.12-.09-.67c-.61-4.56-3.07-8.63-6.8-11.31-2.35-1.68-5.13-2.74-7.93-3.01-.66-.06-1.84-.1-2.38-.08Zm13.29,8.82c.03.11.09.35.14.53s.28,1.07.52,1.98c.56,2.14,1.1,4.23,1.47,5.64.16.62.3,1.15.3,1.17v.04l-.82.21c-.45.12-1.44.37-2.19.57s-1.39.36-1.42.36h-.05l-.05-.17c-.08-.26-.94-3.57-1.07-4.09l-.12-.46-.03.06s-.24.53-.49,1.11c-.25.58-.46,1.06-.47,1.07s-.27-.18-.59-.43c-.96-.74-1.32-1.01-1.34-.99,0,0,.1.47.25,1.02.62,2.38.94,3.65.92,3.67-.01.01-.4.12-.84.24-.45.12-1.41.36-2.14.55-.72.19-1.32.34-1.33.33s-.11-.4-.24-.87c-.12-.47-.34-1.29-.48-1.82s-.3-1.15-.36-1.37c-.35-1.33-.62-2.37-.79-2.99-.1-.38-.29-1.09-.41-1.56l-.22-.87.04-.04s.36-.12.76-.22,1.06-.27,1.48-.39c1.23-.32,1.99-.52,2.06-.52.04,0,.5.35,1.02.78l.96.78.03-.03s.22-.53.47-1.13c.24-.61.46-1.12.48-1.15.05-.05.34-.13,2.07-.59.47-.12,1.19-.31,1.59-.43s.76-.2.79-.2h.05s.05.18.05.18Zm-12.78,3.7c.13.53.27,1.06.7,2.71.32,1.23,1.02,3.9,1.39,5.33l.26,1-.19.04c-.1.03-.48.13-.83.22s-1.13.3-1.71.45-1.15.31-1.27.34-.26.06-.3.06h-.07l-.12-.48c-.07-.26-.22-.85-.34-1.31s-.36-1.39-.54-2.06-.39-1.49-.47-1.8c-.09-.31-.26-1-.4-1.53s-.33-1.27-.43-1.63c-.1-.36-.18-.67-.17-.68.01-.01,1.04-.29,2.77-.74.58-.15,1.14-.31,1.26-.34.11-.04.23-.06.27-.06h.07s.12.48.12.48Zm-5.1,2.39c.2.78.46,1.77.58,2.21l.21.8-.04.03s-.48.15-1.03.29c-.54.14-1,.27-1.02.29l-.03.03.22.85c.61,2.31,1.07,4.12,1.06,4.13-.01,0-1.36.36-3.49.91-.36.09-.7.18-.75.2l-.1.03-.13-.51c-.08-.28-.25-.94-.39-1.47s-.33-1.26-.43-1.62c-.1-.36-.22-.83-.27-1.05l-.1-.4-.05-.02s-.55.11-1.15.27c-.61.16-1.12.29-1.14.29h-.04l-.09-.33c-.04-.18-.18-.69-.3-1.13-.12-.44-.34-1.29-.49-1.87-.15-.59-.27-1.08-.26-1.09s.41-.12.89-.24c.79-.2,2.46-.64,4.58-1.2,1.66-.44,2.86-.75,3.05-.81.11-.04.23-.06.27-.05h.06s.37,1.42.37,1.42Z"/>
    <path class="cls-3" d="m18.76,3.57c-1.16.12-2.06.28-3.03.54-2.22.6-4.19,1.62-6.09,3.12l-.49.39-.76.77-.77.76-.39.49c-1.51,1.89-2.52,3.87-3.12,6.09-.28,1.04-.44,1.96-.55,3.19l-.05.61.03.97.03.97.07.56c.48,3.85,2.08,7.13,4.75,9.81,2.05,2.05,4.51,3.48,7.33,4.26l.72.2.78.13c.43.07,1.01.16,1.27.19l.49.05h2.33s.58-.08.58-.08c1.57-.2,2.61-.44,3.86-.9,4.58-1.66,8.26-5.34,9.92-9.92.45-1.25.7-2.29.91-3.86l.08-.58v-1.21s0-1.21,0-1.21l-.08-.58c-.04-.32-.13-.88-.18-1.23l-.12-.65-.2-.72c-1.19-4.26-3.94-7.81-7.79-10.02-1.89-1.09-3.94-1.76-6.28-2.06l-.56-.07h-1.14s-1.14-.03-1.14-.03l-.4.04Zm14.13,9.22c.09.35.28,1.1.44,1.68s.35,1.32.43,1.64c.08.32.26.98.38,1.46s.32,1.22.43,1.64c.11.42.3,1.14.42,1.61l.22.85-.12.04c-.1.04-.92.26-2.74.73-.31.08-.8.21-1.1.29l-.53.14-.03-.04s-.13-.4-.24-.84c-.21-.81-.37-1.43-.79-2.99l-.22-.83-.07.16c-.34.76-.44,1-.52,1.19-.04.12-.15.36-.23.53l-.14.31-.05-.02s-.35-.25-.72-.53c-.37-.28-.78-.6-.92-.7l-.26-.19.17.61c.09.34.27,1.02.4,1.51.13.49.3,1.13.37,1.41s.18.66.22.84l.08.33-.05.02c-.13.04-1.47.39-2.23.58-.46.12-1.09.28-1.4.36-.31.09-.6.15-.64.15h-.07l-.07-.24c-.1-.35-.29-1.07-.92-3.49-.13-.48-.31-1.17-.4-1.53-.1-.36-.27-1.01-.38-1.44s-.29-1.1-.39-1.48-.22-.84-.26-1.02l-.08-.32.03-.02s1.03-.29,2.69-.72c.31-.08.81-.21,1.11-.29l.55-.15.13.11c.29.23,1.26,1.01,1.53,1.24l.29.23.03-.03s.23-.53.47-1.14c.24-.61.45-1.11.47-1.13.03-.04.55-.18,2.38-.66.48-.13,1.16-.31,1.5-.4l.63-.17.03.03s.1.31.19.66Zm-12.85,3.48c.1.38.27,1.03.38,1.45.11.42.28,1.08.38,1.46.4,1.51.82,3.14,1.16,4.44.12.48.26.97.29,1.1.04.12.07.26.07.3v.07l-.73.19c-.4.1-1.03.26-1.41.36-1.8.48-2.24.59-2.25.57,0,0-.09-.33-.19-.71-.1-.38-.28-1.09-.41-1.57-.5-1.89-.58-2.2-.79-2.99-.12-.44-.31-1.18-.43-1.64-.12-.46-.31-1.19-.43-1.62-.12-.43-.21-.85-.22-.92v-.13s.47-.12.47-.12c.26-.07.91-.23,1.44-.38.53-.14,1.28-.33,1.66-.43s.7-.19.71-.2c.05-.05.11.11.28.75Zm-5.32,1.52c.11.43.31,1.18.43,1.66.13.48.3,1.13.38,1.44l.14.56-.03.03s-.23.08-.48.14c-.25.07-.7.18-1.01.26l-.56.15-.02.05s.03.21.08.4.18.65.27,1.02c.1.37.26,1.03.38,1.46.43,1.65.52,2.02.51,2.07l-.02.05-.67.17c-.37.09-.97.25-1.34.35-.37.1-1.04.27-1.48.39l-.8.21-.03-.04s-.11-.35-.22-.73c-.35-1.31-.54-2.04-.82-3.1-.15-.58-.29-1.09-.31-1.13l-.03-.07-.47.12c-.26.07-.79.2-1.17.31-.38.1-.7.18-.7.18,0-.01-.31-1.13-.53-2-.11-.42-.29-1.11-.4-1.53-.11-.42-.2-.8-.2-.85v-.09l.1-.03c.13-.04,1.98-.53,2.72-.72.31-.08.97-.25,1.46-.38s1.15-.3,1.46-.38c.85-.22,2.64-.7,2.87-.76l.2-.05.03.03s.13.38.24.81Z"/>
  </g>
</svg>